# AST/ASF file generated using VICON BodyLanguage
# -----------------------------------------------
:version 1.10
:name VICON
:units
  mass 1.0
  length 0.45
  angle deg
:documentation
   .ast/.asf automatically generated from VICON data using
   VICON BodyBuilder and BodyLanguage model FoxedUp or BRILLIANT.MOD
:root
   order TX TY TZ RX RY RZ
   axis XYZ
   position 0 0 0  
   orientation 0 0 0 
:bonedata
  begin
     id 1 
     name lhipjoint
     direction 0.611804 -0.747784 0.257906 
     length 2.29243 
     axis 0 0 0  XYZ
  end
  begin
     id 2 
     name lfemur
     direction 0.34202 -0.939693 0  
     length 7.31159  
     axis 0 0 20  XYZ
    dof rx ry rz
    limits (-160.0 20.0)
           (-70.0 70.0)
           (-60.0 70.0)
  end
  begin
     id 3 
     name ltibia
     direction 0.34202 -0.939693 0   
     length 7.33391   
     axis 0 0 20   XYZ
    dof rx
    limits (-10.0 170.0)
  end
  begin
     id 4 
     name lfoot
     direction 0.122263 -0.335914 0.933924   
     length 1.76083   
     axis -90 7.62852e-016 20   XYZ
    dof rx rz
    limits (-45.0 90.0)
           (-70.0 20.0)
  end
  begin
     id 5 
     name ltoes
     direction 1.53533e-011 -4.2177e-011 1   
     length 0.879206   
     axis -90 7.62852e-016 20   XYZ
    dof rx
    limits (-90.0 20.0)
  end
  begin
     id 6 
     name rhipjoint
     direction -0.646469 -0.721248 0.248754   
     length 2.37677  
     axis 0 0 0  XYZ 
  end
  begin
     id 7 
     name rfemur
     direction -0.34202 -0.939693 0   
     length 7.18623   
     axis 0 0 -20   XYZ
    dof rx ry rz
    limits (-160.0 20.0)
           (-70.0 70.0)
           (-70.0 60.0)
  end
  begin
     id 8 
     name rtibia
     direction -0.34202 -0.939693 0   
     length 7.36567   
     axis 0 0 -20   XYZ
    dof rx
    limits (-10.0 170.0)
 end
 begin
     id 9 
     name rfoot
     direction -0.126681 -0.348054 0.928876   
     length 1.71902  
     axis -90 -7.62852e-016 -20   XYZ
    dof rx rz
    limits (-45.0 90.0)
           (-20.0 70.0)
  end
  begin
     id 10 
     name rtoes
     direction -1.53551e-011 -4.21898e-011 1   
     length 0.857792   
     axis -90 -7.62852e-016 -20   XYZ
    dof rx
    limits (-90.0 20.0)
  end
  begin
     id 11 
     name lowerback
     direction 0.0106509 0.999778 0.0181844   
     length 2.07668   
     axis 0 0 0   XYZ
    dof rx ry rz
    limits (-20.0 45.0)
           (-30.0 30.0)
           (-30.0 30.0)
  end
  begin
     id 12 
     name upperback
     direction -0.00456018 0.999989 -0.000590935   
     length 2.08011   
     axis 0 0 0   XYZ
    dof rx ry rz
    limits (-20.0 45.0)
           (-30.0 30.0)
           (-30.0 30.0)
  end
  begin
     id 13 
     name thorax
     direction -0.00910382 0.999916 -0.00923765   
     length 2.07397   
     axis 0 0 0   XYZ
    dof rx ry rz
    limits (-20.0 45.0)
           (-30.0 30.0)
           (-30.0 30.0)
  end
  begin
     id 14 
     name lowerneck
     direction 0.00171967 0.99778 0.0665733   
     length 1.67556   
     axis 0 0 0   XYZ
    dof rx ry rz
    limits (-20.0 45.0)
           (-30.0 30.0)
           (-30.0 30.0)
  end
  begin
     id 15 
     name upperneck
     direction -0.0143166 0.991302 -0.130828   
     length 1.68462   
     axis 0 0 0   XYZ
    dof rx ry rz
    limits (-20.0 45.0)
           (-30.0 30.0)
           (-30.0 30.0)
  end
  begin
     id 16
     name head
     direction -0.00606378 0.998665 -0.0512995  
     length 1.69269  
     axis 0 0 0   XYZ
    dof rx ry rz
    limits (-20.0 45.0)
           (-30.0 30.0)
           (-30.0 30.0)
  end
  begin
     id 17 
     name lclavicle
     direction 0.9638 0.179341 0.197297  
     length 4.12888  
     axis 0 0 0   XYZ
    dof ry rz
    limits (-20.0 10.0)
           (0.0 20.0)
  end
  begin
     id 18 
     name lhumerus
     direction 1 -4.48972e-011 -2.47351e-027   
     length 5.01834   
     axis -180 -30 -90   XYZ
    dof rx ry rz
    limits (-60.0 90.0)
           (-90.0 90.0)
           (-90.0 90.0)
  end
  begin
     id 19
     name lradius
     direction 1 -4.48965e-011 1.51591e-026   
     length 3.4869   
     axis -180 -30 -90   XYZ
    dof rx
    limits (-10.0 170.0)
  end
  begin
     id 20
     name lwrist
     direction 1 -4.48957e-011 2.70032e-026   
     length 1.74345   
     axis -1.81515e-014 90 90   XYZ
    dof ry
    limits (-180.0 0.0)
 end
  begin
     id 21 
     name lhand
     direction 1 -4.48951e-011 5.40064e-026   
     length 0.76799   
     axis -3.44607e-014 90 90   XYZ
    dof rx rz
    limits (-90.0 90.0)
           (-45.0 45.0)
  end
  begin
     id 22 
     name lfingers
     direction 1 -4.48971e-011 1.08013e-025   
     length 0.619174   
     axis -6.89214e-014 90 90   XYZ
    dof rx
    limits (0.0 90.0)
  end
  begin
     id 23
     name lthumb
     direction 0.707107 -6.34931e-011 0.707107   
     length 0.889013   
     axis -90 45 2.85299e-015   XYZ
    dof rx rz
    limits (-45.0 45.0)
           (-45.0 45.0)
  end
  begin
     id 24 
     name rclavicle
     direction -0.961409 0.252588 0.109054   
     length 4.04305  
     axis 0 0 0   XYZ 
    dof ry rz
    limits (-10.0 20.0)
           (-20.0 0.0)
  end
  begin
     id 25 
     name rhumerus
     direction -1 -4.4897e-011 1.33872e-017  
     length 4.70164   
     axis -180 30 90   XYZ
    dof rx ry rz
    limits (-90.0 60.0)
           (-90.0 90.0)
           (-90.0 90.0)
  end
  begin
     id 26 
     name rradius
     direction -1 -4.48954e-011 1.83844e-026   
     length 3.49911   
     axis -180 30 90   XYZ
    dof rx
    limits (-10.0 170.0)
  end
  begin
     id 27 
     name rwrist
     direction -1 -4.49008e-011 2.70032e-026   
     length 1.74955   
     axis -1.81515e-014 -90 -90   XYZ
    dof ry
    limits (-180.0 0.0)
  end
  begin
     id 28
     name rhand
     direction -1 -4.48916e-011 5.40064e-026   
     length 0.739335   
     axis -3.44607e-014 -90 -90   XYZ
    dof rx rz
    limits (-90.0 90.0)
           (-45.0 45.0)
  end
  begin
     id 29
     name rfingers
     direction -1 -4.48987e-011 1.08013e-025   
     length 0.596071   
     axis -6.89214e-014 -90 -90   XYZ
    dof rx
    limits (0.0 90.0)
  end
  begin
     id 30
     name rthumb
     direction -0.707107 -6.34935e-011 0.707107   
     length 0.855843   
     axis -90 -45 -2.85299e-015   XYZ
    dof rx rz
    limits (-45.0 45.0)
           (-45.0 45.0)
  end
:hierarchy
  begin
    root lhipjoint rhipjoint lowerback
    lhipjoint lfemur
    lfemur ltibia
    ltibia lfoot
    lfoot ltoes
    rhipjoint rfemur
    rfemur rtibia
    rtibia rfoot
    rfoot rtoes
    lowerback upperback
    upperback thorax
    thorax lowerneck lclavicle rclavicle
    lowerneck upperneck
    upperneck head
    lclavicle lhumerus
    lhumerus lradius
    lradius lwrist
    lwrist lhand lthumb
    lhand lfingers
    rclavicle rhumerus
    rhumerus rradius
    rradius rwrist
    rwrist rhand rthumb
    rhand rfingers
  end

#!OML:ASF I:\salsa\salsa 7_09\Patient 1\Session 1\dancermale.ASF
:FULLY-SPECIFIED
:DEGREES
115
root -13.2663 17.3835 0.0944572 -552.846 88.6587 -200.843
lowerback -2.20812 1.93744 4.96997
upperback 3.25797 2.44661 -1.18946
thorax 4.88407 1.43114 -3.86018
lowerneck -6.80736 -2.15562 1.17118
upperneck 3.72051 -2.85932 -2.2426
head 2.29956 -1.47357 -1.0317
rclavicle 6.31141e-015 -6.16232e-015
rhumerus -93.9677 35.3493 -131.712
rradius 83.6687
rwrist 40.9325
rhand 116.508 237.968
rfingers 7.12502
rthumb -35.4692 31.5231
lclavicle 6.31141e-015 -6.16232e-015
lhumerus -109.795 -54.0099 147.379
lradius 90.4933
lwrist 8.74188
lhand -33.7764 30.0401
lfingers 7.12502
lthumb -6.96368 59.9056
rfemur -15.0917 3.13947 21.3689
rtibia 26.2417
rfoot -23.9183 -12.5066
rtoes 5.51035
lfemur -15.7565 -3.10984 -19.8708
ltibia 27.5263
lfoot -22.4221 11.0292
ltoes -14.8412
116
root -13.25 17.3773 0.106743 -545.187 88.5593 -193.061
lowerback -2.29701 1.81907 5.35531
upperback 3.27553 2.27068 -1.29273
thorax 4.95764 1.3625 -4.19522
lowerneck -5.15033 -2.05282 1.45656
upperneck 2.54155 -2.75409 -2.10669
head 1.6141 -1.40535 -0.986228
rclavicle 2.45251e-014 7.05686e-015
rhumerus -93.5305 35.7387 -131.67
rradius 83.6112
rwrist 40.7974
rhand 117.035 236.377
rfingers 7.12502
rthumb -34.9696 29.8136
lclavicle 2.45251e-014 7.05686e-015
lhumerus -110.433 -54.2329 147.874
lradius 90.4349
lwrist 8.90677
lhand -34.067 30.0984
lfingers 7.12502
lthumb -7.24428 59.9544
rfemur -14.9514 3.06053 21.6239
rtibia 26.3832
rfoot -23.897 -12.5371
rtoes 4.9831
lfemur -15.7176 -3.219 -19.6523
ltibia 27.805
lfoot -22.5807 11.0861
ltoes -14.9252
117
root -13.2354 17.3708 0.118685 -536.163 88.421 -183.959
lowerback -2.35771 1.66241 5.73617
upperback 3.32052 2.04086 -1.31203
thorax 5.03085 1.26636 -4.44526
lowerneck -3.827 -1.95776 1.74968
upperneck 1.49663 -2.64174 -2.11306
head 1.04913 -1.34023 -0.999004
rclavicle 9.7156e-015 -1.2921e-014
rhumerus -93.1767 36.3362 -131.56
rradius 83.6523
rwrist 40.6731
rhand 117.504 235.173
rfingers 7.12502
rthumb -34.5246 28.5077
lclavicle 9.7156e-015 -1.2921e-014
lhumerus -110.624 -54.4617 148.036
lradius 90.375
lwrist 9.11131
lhand -34.3014 30.3292
lfingers 7.12502
lthumb -7.47047 60.1773
rfemur -14.8714 2.96158 21.9538
rtibia 26.5527
rfoot -23.8834 -12.5469
rtoes 4.40161
lfemur -15.7787 -3.21227 -19.3513
ltibia 28.1706
lfoot -22.8024 11.0593
ltoes -15.1144
118
root -13.2196 17.3637 0.134077 -527.957 88.2999 -175.643
lowerback -2.3964 1.58527 6.14284
upperback 3.29114 1.91947 -1.38588
thorax 5.02771 1.22185 -4.76136
lowerneck -2.29306 -1.92542 2.27718
upperneck 0.581753 -2.60425 -2.19435
head 0.498633 -1.31305 -1.079
rclavicle 1.09083e-014 -1.45113e-014
rhumerus -92.793 36.4918 -131.371
rradius 83.7727
rwrist 40.5397
rhand 117.933 234.127
rfingers 7.12502
rthumb -34.1171 27.3689
lclavicle 1.09083e-014 -1.45113e-014
lhumerus -111.136 -54.5789 148.363
lradius 90.3591
lwrist 9.16361
lhand -34.3116 30.7681
lfingers 7.12502
lthumb -7.4803 60.6158
rfemur -14.754 2.94686 22.3227
rtibia 26.6902
rfoot -23.945 -12.6161
rtoes 3.67596
lfemur -15.8062 -3.10417 -19.0077
ltibia 28.5575
lfoot -23.0606 10.982
ltoes -15.1943
119
root -13.2 17.3573 0.150532 -522.143 88.295 -169.708
lowerback -2.62997 1.58016 6.39648
upperback 3.31829 1.88755 -1.45495
thorax 5.19959 1.22323 -4.97445
lowerneck -0.612467 -1.85771 2.78495
upperneck -0.320708 -2.49607 -2.2726
head -0.0621276 -1.25154 -1.16062
rclavicle 1.09332e-014 2.88238e-015
rhumerus -92.3039 36.5722 -131.074
rradius 83.8517
rwrist 40.6665
rhand 117.945 232.729
rfingers 7.12502
rthumb -34.1062 25.9692
lclavicle 1.09332e-014 2.88238e-015
lhumerus -111.683 -54.5958 148.759
lradius 90.373
lwrist 9.18423
lhand -34.3019 31.1179
lfingers 7.12502
lthumb -7.47093 60.966
rfemur -14.6449 3.01815 22.6167
rtibia 26.8389
rfoot -23.927 -12.7356
rtoes 2.63184
lfemur -15.7674 -2.95644 -18.7459
ltibia 28.8888
lfoot -23.2566 10.9983
ltoes -15.1749
120
root -13.1787 17.3508 0.164149 -520.362 88.3018 -167.811
lowerback -2.95716 1.49963 6.42811
upperback 3.50645 1.75465 -1.44806
thorax 5.56899 1.17669 -4.98691
lowerneck 0.513136 -1.71213 3.17157
upperneck -1.06025 -2.28026 -2.42886
head -0.478489 -1.13956 -1.26352
rclavicle -1.15544e-015 1.30949e-014
rhumerus -91.7987 37.0463 -130.657
rradius 83.9317
rwrist 40.9963
rhand 117.742 231.78
rfingers 7.12502
rthumb -34.2991 25.0634
lclavicle -1.15544e-015 1.30949e-014
lhumerus -111.499 -54.5795 148.581
lradius 90.4072
lwrist 9.29427
lhand -34.5181 31.2585
lfingers 7.12502
lthumb -7.67963 61.099
rfemur -14.5403 3.02707 22.7496
rtibia 27.022
rfoot -23.9072 -12.7878
rtoes 1.80402
lfemur -15.7031 -2.89469 -18.6514
ltibia 29.1865
lfoot -23.4177 11.0959
ltoes -15.1907
121
root -13.1609 17.3423 0.177096 -521.613 88.2464 -168.982
lowerback -3.18886 1.36569 6.37261
upperback 3.71389 1.56108 -1.42745
thorax 5.8926 1.09572 -4.94426
lowerneck 0.975678 -1.59665 3.43141
upperneck -1.32413 -2.11432 -2.59608
head -0.639172 -1.05468 -1.35935
rclavicle 7.11587e-015 1.4064e-014
rhumerus -91.2682 37.5169 -130.051
rradius 84.0974
rwrist 40.9151
rhand 118.161 232.308
rfingers 7.12502
rthumb -33.9009 25.5018
lclavicle 7.11587e-015 1.4064e-014
lhumerus -110.973 -54.5771 148.092
lradius 90.44
lwrist 9.33754
lhand -34.7716 31.4611
lfingers 7.12502
lthumb -7.92438 61.2926
rfemur -14.5083 2.92459 22.7829
rtibia 27.2818
rfoot -24.0728 -12.735
rtoes 1.44032
lfemur -15.7445 -2.8959 -18.641
ltibia 29.5737
lfoot -23.6445 11.1489
ltoes -15.1309
122
root -13.1466 17.3329 0.190952 -521.91 88.192 -169.18
lowerback -3.28346 1.22497 6.3443
upperback 3.90311 1.36639 -1.40077
thorax 6.11978 1.0117 -4.91459
lowerneck 1.16826 -1.49621 3.71875
upperneck -1.44498 -1.97482 -2.86042
head -0.712694 -0.983465 -1.49424
rclavicle -5.14666e-015 1.04983e-014
rhumerus -90.72 37.885 -129.364
rradius 84.3215
rwrist 40.5194
rhand 118.927 233.55
rfingers 7.12502
rthumb -33.1728 26.5859
lclavicle -5.14666e-015 1.04983e-014
lhumerus -110.352 -54.5376 147.479
lradius 90.4648
lwrist 9.22395
lhand -34.8016 31.8535
lfingers 7.12502
lthumb -7.95333 61.6839
rfemur -14.4676 2.77804 22.8542
rtibia 27.5318
rfoot -24.2628 -12.717
rtoes 0.994925
lfemur -15.81 -2.86855 -18.5914
ltibia 30.0204
lfoot -23.8982 11.2008
ltoes -15.0742
123
root -13.1299 17.3238 0.205299 -521.492 88.2227 -168.543
lowerback -3.18811 1.08209 6.29447
upperback 4.09874 1.18314 -1.36471
thorax 6.24552 0.929498 -4.86476
lowerneck 1.10224 -1.34139 3.95438
upperneck -1.40542 -1.76957 -3.09684
head -0.688142 -0.880565 -1.61428
rclavicle 9.07576e-015 6.41081e-015
rhumerus -90.3231 38.2459 -128.838
rradius 84.5248
rwrist 40.4396
rhand 119.102 233.895
rfingers 7.12502
rthumb -33.0065 26.8963
lclavicle 9.07576e-015 6.41081e-015
lhumerus -109.591 -54.3669 146.732
lradius 90.4424
lwrist 9.14914
lhand -34.8058 31.991
lfingers 7.12502
lthumb -7.95738 61.8213
rfemur -14.2442 2.59477 22.9308
rtibia 27.6758
rfoot -24.3347 -12.6144
rtoes 0.738804
lfemur -15.673 -2.83165 -18.5482
ltibia 30.3703
lfoot -24.1336 11.2973
ltoes -15.0783
124
root -13.1132 17.3132 0.221526 -519.366 88.3595 -166.196
lowerback -3.05844 0.972281 6.18422
upperback 4.29893 1.04922 -1.30701
thorax 6.36112 0.868099 -4.7535
lowerneck 0.882084 -1.2032 4.28241
upperneck -1.32175 -1.59117 -3.38102
head -0.625093 -0.792363 -1.76709
rclavicle 2.6603e-015 2.74571e-014
rhumerus -90.0286 38.5265 -128.462
rradius 84.6306
rwrist 40.7101
rhand 118.57 232.521
rfingers 7.12502
rthumb -33.512 25.6302
lclavicle 2.6603e-015 2.74571e-014
lhumerus -108.741 -54.1429 145.958
lradius 90.3382
lwrist 9.10394
lhand -34.9803 31.7879
lfingers 7.12502
lthumb -8.12573 61.6117
rfemur -14.0362 2.53832 23.0361
rtibia 27.8344
rfoot -24.3991 -12.4396
rtoes 0.672368
lfemur -15.5197 -2.76345 -18.4767
ltibia 30.6971
lfoot -24.3289 11.521
ltoes -15.4027
125
root -13.099 17.3014 0.238181 -515.682 88.5233 -162.371
lowerback -2.98858 0.855287 6.03515
upperback 4.50129 0.902293 -1.21991
thorax 6.51102 0.798297 -4.5897
lowerneck 0.626112 -1.06058 4.71865
upperneck -1.43818 -1.41301 -3.80014
head -0.619676 -0.704971 -1.98449
rclavicle -1.19053e-014 -1.28775e-014
rhumerus -89.7607 38.7845 -128.111
rradius 84.6992
rwrist 41.0847
rhand 118.069 230.81
rfingers 7.12502
rthumb -33.9878 24.0232
lclavicle -1.19053e-014 -1.28775e-014
lhumerus -107.682 -53.9031 145.044
lradius 90.1946
lwrist 8.91323
lhand -35.0622 31.7037
lfingers 7.12502
lthumb -8.20477 61.5244
rfemur -13.9669 2.57444 23.1637
rtibia 28.0743
rfoot -24.5078 -12.3223
rtoes 0.763115
lfemur -15.4848 -2.68684 -18.377
ltibia 31.0686
lfoot -24.5052 11.8008
ltoes -15.7708
126
root -13.0816 17.2901 0.252406 -514.936 88.6305 -161.47
lowerback -2.70589 0.697819 5.7389
upperback 4.55057 0.718553 -1.04867
thorax 6.36544 0.685974 -4.25888
lowerneck 0.26261 -0.881958 4.93194
upperneck -1.37047 -1.19121 -4.17993
head -0.531547 -0.595646 -2.15067
rclavicle 3.78933e-015 -6.21202e-015
rhumerus -89.7759 38.8705 -127.668
rradius 84.8425
rwrist 41.3497
rhand 118.191 231.124
rfingers 7.12502
rthumb -33.8721 24.3122
lclavicle 3.78933e-015 -6.21202e-015
lhumerus -106.652 -53.3546 144.292
lradius 90.0257
lwrist 8.6388
lhand -34.9799 31.8459
lfingers 7.12502
lthumb -8.12536 61.6696
rfemur -13.866 2.37719 23.1955
rtibia 28.3161
rfoot -24.7632 -12.0931
rtoes 1.20463
lfemur -15.3723 -2.68287 -18.3651
ltibia 31.3502
lfoot -24.7003 11.928
ltoes -15.5621
127
root -13.0623 17.279 0.265633 -515.733 88.6881 -162.119
lowerback -2.45865 0.532779 5.43108
upperback 4.6135 0.522017 -0.876536
thorax 6.25669 0.568673 -3.92084
lowerneck -0.316204 -0.700508 5.18465
upperneck -1.14462 -0.972339 -4.59731
head -0.355474 -0.490426 -2.3377
rclavicle 9.44227e-016 -2.43511e-015
rhumerus -89.7147 38.9663 -127.096
rradius 84.9888
rwrist 41.5058
rhand 118.438 232.201
rfingers 7.12502
rthumb -33.638 25.3371
lclavicle 9.44227e-016 -2.43511e-015
lhumerus -105.608 -52.8035 143.514
lradius 89.804
lwrist 8.30662
lhand -34.9381 31.8668
lfingers 7.12502
lthumb -8.08506 61.6922
rfemur -13.7554 2.02165 23.195
rtibia 28.5419
rfoot -25.1336 -11.8112
rtoes 1.32861
lfemur -15.2272 -2.70531 -18.3828
ltibia 31.5684
lfoot -24.8885 12.0323
ltoes -15.3762
128
root -13.0449 17.2694 0.279701 -514.067 88.8213 -160.403
lowerback -2.23692 0.389659 5.09735
upperback 4.61274 0.351967 -0.682909
thorax 6.10068 0.459475 -3.54316
lowerneck -0.953735 -0.515071 5.70422
upperneck -0.82152 -0.751868 -5.28094
head -0.138253 -0.386721 -2.66525
rclavicle 5.69021e-015 -9.93923e-017
rhumerus -89.7941 39.0538 -126.593
rradius 85.1543
rwrist 41.6754
rhand 118.556 233.171
rfingers 7.12502
rthumb -33.5258 26.283
lclavicle 5.69021e-015 -9.93923e-017
lhumerus -104.52 -52.1702 142.684
lradius 89.5231
lwrist 7.87344
lhand -35.0394 31.7094
lfingers 7.12502
lthumb -8.18281 61.531
rfemur -13.7821 1.80761 23.2223
rtibia 28.796
rfoot -25.3843 -11.6332
rtoes 1.07331
lfemur -15.2002 -2.63509 -18.3648
ltibia 31.8103
lfoot -25.0906 12.1852
ltoes -15.5025
129
root -13.0281 17.2624 0.293204 -509.81 89.0671 -156.161
lowerback -2.00144 0.276373 4.68288
upperback 4.55108 0.223219 -0.450297
thorax 5.8784 0.363214 -3.07628
lowerneck -1.89598 -0.282738 6.01928
upperneck -0.192052 -0.472225 -5.94796
head 0.239429 -0.259082 -2.95483
rclavicle -1.83876e-015 1.27222e-014
rhumerus -90.05 38.955 -126.038
rradius 85.4155
rwrist 41.9177
rhand 118.903 234.371
rfingers 7.12502
rthumb -33.1956 27.4119
lclavicle -1.83876e-015 1.27222e-014
lhumerus -103.431 -51.4458 141.905
lradius 89.2411
lwrist 7.44094
lhand -35.1991 31.5311
lfingers 7.12502
lthumb -8.33692 61.3466
rfemur -13.9153 1.73732 23.2344
rtibia 29.0888
rfoot -25.481 -11.5437
rtoes 0.692015
lfemur -15.2156 -2.51985 -18.3657
ltibia 31.9933
lfoot -25.2407 12.3645
ltoes -15.5935
